<?xml version="1.0" encoding="utf-8"?>
<!-- Generated by IcoMoon.io -->
<!DOCTYPE svg PUBLIC "-//W3C//DTD SVG 1.1//EN" "http://www.w3.org/Graphics/SVG/1.1/DTD/svg11.dtd">
<svg height="512" width="512" version="1.1" xmlns="http://www.w3.org/2000/svg" xmlns:xlink="http://www.w3.org/1999/xlink"   viewBox="0 0 120 120">
<g id="icomoon-ignore">
	<line stroke-width="1" x1="" y1="" x2="" y2="" stroke="#449FDB" opacity=""></line>
</g>
	<path d="M118.080 29.696c-1.256-0.216-2.488 0.616-2.724 1.884l-14.26 78.268c-0.244 1.26 0.6 2.492 1.876 2.724 0.14 0.024 0.28 0.040 0.42 0.040 1.104 0 2.092-0.788 2.296-1.92l14.272-78.268c0.232-1.276-0.608-2.492-1.88-2.728z" fill="#000000"></path>
	<path d="M108.876 28.024c-1.256-0.224-2.488 0.612-2.724 1.88l-14.276 78.264c-0.228 1.268 0.612 2.488 1.884 2.724 0.14 0.024 0.284 0.032 0.42 0.032 1.108 0 2.088-0.78 2.296-1.916l14.276-78.26c0.236-1.276-0.612-2.496-1.876-2.724z" fill="#000000"></path>
	<path d="M99.264 27.712c-0.72-0.528-1.688-0.6-2.476-0.188-0.024 0-2.016 1.012-5.572 1.012-5.712 0-15.036-2.516-27.056-14.492-4.596-4.584-9.48-6.912-14.496-6.912-12.076 0-20.764 13.628-21.916 26.26-0.84 9.308 2.076 19.784 11.568 25.948-5.868 1.284-10.844 4.428-14.612 9.288-4.24 5.452-6.668 12.936-6.668 20.532 0 13.952 7.588 23.712 18.464 23.712 3.156 0 6.544-0.804 10.072-2.392 8.072-3.628 15.36-5.468 21.672-5.468 9.56 0 13.448 4.2 13.592 4.36 0.584 0.684 1.508 0.968 2.388 0.736 0.868-0.244 1.524-0.948 1.692-1.844l14.264-78.26c0.168-0.876-0.196-1.76-0.916-2.292z" fill="#000000"></path>
	<path d="M18.552 69.616c0.764-1.336 1.54-2.672 2.46-3.86 2.62-3.376 5.804-6.084 9.412-8.056-3.62-4.232-5.988-9.484-6.964-15.28-3.392 2.132-6.036 5.312-7.52 9.080l-3.972-0.724 0.84-4.604c0.232-1.272-0.608-2.488-1.884-2.728-1.252-0.224-2.484 0.612-2.724 1.884l-0.836 4.608-4.596-0.844c-1.252-0.228-2.488 0.612-2.724 1.884-0.232 1.272 0.608 2.492 1.884 2.728l4.596 0.84-0.836 4.596c-0.24 1.268 0.604 2.492 1.876 2.72 0.144 0.024 0.284 0.036 0.424 0.036 1.104 0 2.092-0.788 2.296-1.916l0.84-4.596 3.72 0.68c-0.564 4.888 0.788 9.74 3.708 13.552z" fill="#000000"></path>
</svg>
